<svg width="154" height="28" viewBox="0 0 154 28" fill="none" xmlns="http://www.w3.org/2000/svg">
    <style>
		path {
			fill: #19171C;
		}
	</style>

    <path d="M32.2348 27.0206C30.735 27.0206 29.3927 26.6353 28.2078 25.8647C27.0229 25.0941 26.0866 23.9755 25.3989 22.5089C24.7111 21.0423 24.3673 19.2608 24.3673 17.1644C24.3673 15.0432 24.7153 13.2534 25.4113 11.7951C26.1156 10.3285 27.0643 9.2223 28.2575 8.47656C29.4507 7.72254 30.7806 7.34553 32.2472 7.34553C33.3658 7.34553 34.2856 7.5361 35.0065 7.91726C35.7273 8.29013 36.2991 8.74171 36.7217 9.27202C37.1442 9.79403 37.4715 10.2871 37.7036 10.7511H37.89V1.23047H42.4017V26.685H37.977V23.6772H37.7036C37.4715 24.1412 37.136 24.6342 36.6968 25.1562C36.2576 25.67 35.6776 26.1091 34.9567 26.4737C34.2359 26.8383 33.3286 27.0206 32.2348 27.0206ZM33.4901 23.3292C34.443 23.3292 35.255 23.0723 35.9262 22.5586C36.5974 22.0366 37.107 21.3116 37.455 20.3835C37.803 19.4555 37.977 18.3742 37.977 17.1396C37.977 15.9049 37.803 14.8319 37.455 13.9205C37.1152 13.009 36.6098 12.3005 35.9386 11.7951C35.2758 11.2897 34.4596 11.0369 33.4901 11.0369C32.4875 11.0369 31.6506 11.2979 30.9795 11.82C30.3083 12.342 29.8029 13.0629 29.4631 13.9826C29.1234 14.9023 28.9536 15.9547 28.9536 17.1396C28.9536 18.3327 29.1234 19.3975 29.4631 20.3338C29.8112 21.2618 30.3207 21.9951 30.9919 22.5337C31.6714 23.064 32.5041 23.3292 33.4901 23.3292Z" fill="#19171C"/>
    <path d="M63.1987 7.59411L56.4001 26.685H51.4285L44.6298 7.59411H49.4274L53.8149 21.7756H54.0137L58.4136 7.59411H63.1987Z" fill="#19171C"/>
    <path d="M73.0645 27.0579C71.1504 27.0579 69.4974 26.6602 68.1053 25.8647C66.7216 25.061 65.6568 23.9258 64.9111 22.4592C64.1653 20.9843 63.7925 19.2483 63.7925 17.2514C63.7925 15.2876 64.1653 13.5642 64.9111 12.081C65.6651 10.5895 66.7174 9.42945 68.068 8.60085C69.4187 7.76397 71.0054 7.34553 72.8283 7.34553C74.005 7.34553 75.1153 7.5361 76.1593 7.91726C77.2116 8.29013 78.1397 8.87015 78.9434 9.65732C79.7554 10.4445 80.3934 11.4471 80.8575 12.6651C81.3215 13.8749 81.5535 15.3166 81.5535 16.9904V18.37H65.9054V15.3374H77.2406C77.2323 14.4756 77.0459 13.7092 76.6813 13.038C76.3167 12.3585 75.8072 11.8241 75.1526 11.4347C74.5062 11.0452 73.7522 10.8505 72.8905 10.8505C71.9707 10.8505 71.1629 11.0742 70.4668 11.5217C69.7708 11.9608 69.2281 12.5408 68.8386 13.2617C68.4575 13.9743 68.2628 14.7573 68.2545 15.6108V18.2582C68.2545 19.3685 68.4575 20.3214 68.8635 21.1168C69.2695 21.904 69.8371 22.5089 70.5663 22.9315C71.2954 23.3458 72.1489 23.5529 73.1266 23.5529C73.7812 23.5529 74.3737 23.4618 74.904 23.2795C75.4343 23.0889 75.8941 22.8113 76.2836 22.4467C76.673 22.0821 76.9672 21.6306 77.1661 21.092L81.367 21.5643C81.1019 22.6746 80.5964 23.6441 79.8507 24.4727C79.1133 25.293 78.1686 25.931 77.0169 26.3867C75.8652 26.8342 74.5477 27.0579 73.0645 27.0579Z" fill="#19171C"/>
    <path d="M84.3099 26.685V7.59411H88.6724V10.7759H88.8713C89.2193 9.67389 89.8159 8.82457 90.6611 8.22798C91.5145 7.62311 92.4881 7.32067 93.5819 7.32067C93.8305 7.32067 94.108 7.3331 94.4146 7.35795C94.7295 7.37453 94.9905 7.40353 95.1976 7.44496V11.5838C95.0071 11.5175 94.7046 11.4595 94.2903 11.4098C93.8843 11.3518 93.4907 11.3228 93.1096 11.3228C92.2893 11.3228 91.5518 11.5009 90.8972 11.8572C90.2509 12.2053 89.7413 12.69 89.3685 13.3114C88.9956 13.9329 88.8092 14.6496 88.8092 15.4616V26.685H84.3099Z" fill="#19171C"/>
    <path d="M110.408 26.685V7.59411H114.907V26.685H110.408ZM112.67 4.88459C111.958 4.88459 111.344 4.64844 110.831 4.17614C110.317 3.69555 110.06 3.11967 110.06 2.44851C110.06 1.76906 110.317 1.19318 110.831 0.72088C111.344 0.240293 111.958 0 112.67 0C113.391 0 114.004 0.240293 114.51 0.72088C115.023 1.19318 115.28 1.76906 115.28 2.44851C115.28 3.11967 115.023 3.69555 114.51 4.17614C114.004 4.64844 113.391 4.88459 112.67 4.88459Z" fill="#19171C"/>
    <path d="M118.235 26.685V23.8263L128.079 11.4844V11.3228H118.559V7.59411H133.585V10.6641L124.214 22.7947V22.9563H133.908V26.685H118.235Z" fill="#19171C"/>
    <path d="M144.992 27.0579C143.078 27.0579 141.425 26.6602 140.033 25.8647C138.649 25.061 137.585 23.9258 136.839 22.4592C136.093 20.9843 135.72 19.2483 135.72 17.2514C135.72 15.2876 136.093 13.5642 136.839 12.081C137.593 10.5895 138.645 9.42945 139.996 8.60085C141.346 7.76397 142.933 7.34553 144.756 7.34553C145.933 7.34553 147.043 7.5361 148.087 7.91726C149.139 8.29013 150.067 8.87015 150.871 9.65732C151.683 10.4445 152.321 11.4471 152.785 12.6651C153.249 13.8749 153.481 15.3166 153.481 16.9904V18.37H137.833V15.3374H149.168C149.16 14.4756 148.974 13.7092 148.609 13.038C148.244 12.3585 147.735 11.8241 147.08 11.4347C146.434 11.0452 145.68 10.8505 144.818 10.8505C143.898 10.8505 143.091 11.0742 142.395 11.5217C141.699 11.9608 141.156 12.5408 140.766 13.2617C140.385 13.9743 140.191 14.7573 140.182 15.6108V18.2582C140.182 19.3685 140.385 20.3214 140.791 21.1168C141.197 21.904 141.765 22.5089 142.494 22.9315C143.223 23.3458 144.077 23.5529 145.054 23.5529C145.709 23.5529 146.301 23.4618 146.832 23.2795C147.362 23.0889 147.822 22.8113 148.211 22.4467C148.601 22.0821 148.895 21.6306 149.094 21.092L153.295 21.5643C153.03 22.6746 152.524 23.6441 151.778 24.4727C151.041 25.293 150.096 25.931 148.945 26.3867C147.793 26.8342 146.475 27.0579 144.992 27.0579Z" fill="#19171C"/>
    <path fill-rule="evenodd" clip-rule="evenodd" d="M0 26.685H4.92188L7.02694 20.4084L8.26913 16.7045L11.7081 6.45064H11.907L15.3522 16.7045L16.5967 20.4084L18.7056 26.685H23.6275L14.6538 1.23047H8.96129L0 26.685Z" fill="#19171C"/>
    <path fill-rule="evenodd" clip-rule="evenodd" d="M107.695 11.0742V7.59411H103.929V3.02024H99.43V7.59411V11.0742V21.6886C99.4217 22.8817 99.6785 23.8761 100.201 24.6715C100.731 25.467 101.448 26.0553 102.351 26.4364C103.254 26.8093 104.269 26.9792 105.396 26.946C106.034 26.9295 106.572 26.8715 107.012 26.772C107.459 26.6726 107.803 26.5814 108.043 26.4986L107.285 22.9812C107.161 23.0143 106.978 23.0516 106.738 23.093C106.506 23.1345 106.249 23.1552 105.968 23.1552C105.595 23.1552 105.255 23.0972 104.948 22.9812C104.642 22.8652 104.393 22.6497 104.203 22.3349C104.02 22.0117 103.929 21.5477 103.929 20.9428V11.0742H107.695Z" fill="#19171C"/>
</svg>
