<?xml version="1.0" standalone="no"?>
<!DOCTYPE svg PUBLIC "-//W3C//DTD SVG 20010904//EN"
 "http://www.w3.org/TR/2001/REC-SVG-20010904/DTD/svg10.dtd">
<svg version="1.0" xmlns="http://www.w3.org/2000/svg"
 width="700.000000pt" height="700.000000pt" viewBox="0 0 700.000000 700.000000"
 preserveAspectRatio="xMidYMid meet">
<metadata>
Created by potrace 1.14, written by Peter Selinger 2001-2017
</metadata>
<g transform="translate(0.000000,700.000000) scale(0.100000,-0.100000)"
fill="#000000" stroke="none">
<path d="M3280 6994 c-19 -2 -84 -9 -145 -14 -639 -62 -1264 -315 -1795 -726
-149 -115 -481 -446 -595 -594 -410 -532 -653 -1132 -727 -1795 -17 -155 -17
-575 0 -730 75 -673 332 -1300 748 -1820 114 -143 339 -372 484 -494 537 -451
1163 -717 1885 -803 142 -17 586 -17 730 0 682 79 1268 318 1802 734 138 107
389 351 512 498 451 538 717 1162 803 1885 16 139 16 595 0 730 -77 629 -275
1158 -620 1649 -234 333 -577 668 -917 896 -460 308 -968 495 -1535 566 -117
15 -552 27 -630 18z m-131 -3316 c233 -662 437 -1238 452 -1280 l28 -78 -248
0 -248 0 -340 1013 c-222 660 -345 1012 -353 1012 -9 0 -132 -352 -353 -1012
l-340 -1013 -248 0 -248 0 28 78 c16 42 219 618 451 1280 l423 1202 287 0 286
0 423 -1202z m2371 -78 l0 -1280 -225 0 -225 0 0 150 c0 174 -6 183 -63 93
-71 -116 -171 -198 -297 -244 -58 -21 -82 -24 -215 -24 -138 0 -157 2 -238 29
-221 72 -394 251 -482 496 -82 229 -94 562 -30 815 83 328 308 558 602 615 94
19 293 9 368 -18 117 -43 216 -127 290 -246 22 -36 43 -65 48 -66 4 0 7 216 7
480 l0 480 230 0 230 0 0 -1280z"/>
<path d="M4479 3871 c-105 -34 -181 -106 -242 -227 -76 -150 -94 -417 -42
-619 39 -150 129 -271 243 -327 64 -32 72 -33 182 -33 110 0 118 1 182 33 170
84 268 296 268 582 0 288 -99 497 -273 576 -82 37 -230 44 -318 15z"/>
</g>
</svg>
